<svg width="20" height="20" viewBox="0 0 20 20" fill="none" xmlns="http://www.w3.org/2000/svg">
<g clip-path="url(#clip0_116_10)">
<path d="M10 0.3125C4.64961 0.3125 0.3125 4.64961 0.3125 10C0.3125 15.3504 4.64961 19.6875 10 19.6875C15.3504 19.6875 19.6875 15.3504 19.6875 10C19.6875 4.64961 15.3504 0.3125 10 0.3125ZM16.25 8.73047V9.00117C16.25 9.23047 16.1203 9.44023 15.9152 9.54258L15.3141 9.84336C15.2186 9.89114 15.1122 9.9128 15.0056 9.90615C14.8991 9.89949 14.7962 9.86476 14.7074 9.80547L13.9961 9.33125C13.9194 9.28014 13.832 9.24721 13.7406 9.23496C13.6492 9.2227 13.5562 9.23146 13.4687 9.26055L13.3652 9.29492C12.9863 9.42109 12.8316 9.87266 13.0531 10.2051L13.5703 10.9809C13.6824 11.1492 13.8715 11.2504 14.0738 11.2504H14.3945C14.7289 11.2504 15 11.5215 15 11.8559V12.2988C15 12.4297 14.9574 12.5574 14.8789 12.6621L14.1469 13.6379C14.0914 13.7121 14.0535 13.798 14.0363 13.8891L13.8684 14.7809C13.8441 14.9094 13.7789 15.0266 13.6824 15.1152C13.3122 15.4542 12.9843 15.8367 12.7059 16.2543L12.1969 17.018C12.0979 17.1665 11.9638 17.2882 11.8064 17.3724C11.6491 17.4567 11.4734 17.5008 11.2949 17.5008C10.8844 17.5008 10.509 17.2687 10.3254 16.9016C10.1114 16.4735 9.99998 16.0016 10 15.523V14.3555C10 14.0211 9.72891 13.75 9.39453 13.75H8.38359C7.81758 13.75 7.275 13.525 6.87461 13.125C6.47452 12.7247 6.24972 12.182 6.24961 11.616V11.0668C6.24961 10.3953 6.56602 9.76289 7.10312 9.35977L8.18047 8.55156C8.5499 8.27454 8.99918 8.12473 9.46094 8.12461H9.4957C9.82695 8.12461 10.1539 8.20156 10.45 8.35L11.025 8.6375C11.1687 8.70937 11.3348 8.72109 11.4871 8.67031L13.3352 8.0543C13.5824 7.97188 13.7492 7.74063 13.7492 7.48008C13.7492 7.1457 13.4781 6.87461 13.1438 6.87461H12.7496C12.5891 6.87461 12.4352 6.81094 12.3215 6.69727L12.0512 6.42695C11.995 6.37072 11.9282 6.32611 11.8548 6.29568C11.7813 6.26525 11.7026 6.2496 11.623 6.24961H8.10547C7.77109 6.24961 7.5 5.97852 7.5 5.64414V5.47227C7.5 5.19453 7.68906 4.95234 7.95859 4.88477L8.52305 4.74375C8.66914 4.70703 8.79648 4.61758 8.88008 4.49219L9.1957 4.01914C9.30781 3.85078 9.49688 3.74961 9.69922 3.74961H10.6449C10.9793 3.74961 11.2504 3.47852 11.2504 3.14414V2.29648C14.3449 2.79805 16.8305 5.11797 17.5754 8.125H16.8555C16.5211 8.125 16.25 8.39609 16.25 8.73047Z" fill="white"/>
</g>
<defs>
<clipPath id="clip0_116_10">
<rect width="20" height="20" fill="white"/>
</clipPath>
</defs>
</svg>
