<svg width="517" height="212" viewBox="0 0 517 212" fill="none" xmlns="http://www.w3.org/2000/svg">
<path d="M299.591 45.4951C299.591 51.6314 287.176 55.8849 273.932 55.1054L258.803 54.2327L245.579 82.2517C244.274 85.0215 240.751 86.8888 236.771 86.9343L231.465 86.9653L230.947 53.6373C160.935 65.8022 112.126 117.28 108.353 154.51C104.208 195.443 160.686 195.443 160.686 195.443C111.98 229.108 24.4135 198.121 82.4454 124.134C121.243 74.6618 182.426 56.2386 216.271 49.9792H216.292C216.313 49.9792 216.333 49.9792 216.354 49.9637C216.914 49.8562 217.286 49.4282 217.162 49.0001C217.037 48.5566 216.478 48.2805 215.876 48.357H215.815C215.793 48.357 215.774 48.357 215.753 48.3726C191.628 51.5859 168.063 57.4006 145.658 65.0371C167.545 56.6511 190.841 49.9792 215.049 45.8788C215.091 45.8788 215.131 45.8633 215.152 45.8633C215.649 45.7868 216.002 45.4353 215.939 45.0527C215.878 44.6391 215.379 44.3486 214.82 44.3952C214.778 44.3952 214.738 44.4107 214.717 44.4107C141.763 52.5207 57.823 83.141 31.6253 122.958C2.07094 167.901 44.6205 199.194 44.6205 199.194C3.68991 179.604 -21.6984 120.078 70.5299 75.1962C137.122 42.7863 189.376 39.9565 225.33 38.3022L230.719 38.3787L230.179 3.04586L235.485 3.00039C239.465 2.96935 243.029 4.77564 244.439 7.52997L259.217 36.7265L273.932 35.8694C274.968 35.8084 276.004 35.7774 277.02 35.7774C289.042 35.7785 299.591 39.8335 299.591 45.4951Z" fill="url(#paint0_linear_109_45)"/>
<path d="M259.217 36.7265L244.439 7.52997C243.03 4.77564 239.465 2.96935 235.485 3.00039L230.179 3.04586L230.718 38.3787C230.718 38.3787 243.763 37.1556 259.217 36.7265Z" fill="url(#paint1_linear_109_45)"/>
<path d="M108.355 154.508C112.127 117.278 160.937 65.8011 230.948 53.6361C230.948 53.6361 136.391 61.5166 93.5574 137.253C76.9472 166.621 88.6659 191.999 127.302 208.194C139.004 206.551 150.669 202.368 160.689 195.443C160.689 195.443 104.21 195.442 108.355 154.508Z" fill="url(#paint2_linear_109_45)"/>
<path d="M299.59 45.4951C299.59 51.6314 287.176 55.8848 273.932 55.1053L258.802 54.2327C250.678 54.1717 237.828 53.8346 232.937 53.6971C232.833 53.6971 232.729 53.6816 232.647 53.6816C232.108 53.6361 231.549 53.6206 230.947 53.6361C247.009 52.9786 299.362 49.7796 288.647 37.1556C295.094 38.8078 299.59 41.8072 299.59 45.4951Z" fill="url(#paint3_linear_109_45)"/>
<path d="M230.948 53.6361L231.466 86.9642L236.772 86.9331C240.752 86.8877 244.275 85.0204 245.581 82.2505L258.804 54.2316C248.599 54.1506 230.948 53.6361 230.948 53.6361Z" fill="url(#paint4_linear_109_45)"/>
<path d="M44.6234 199.191C44.6234 199.191 2.07395 167.898 31.6282 122.955C57.8259 83.1376 141.764 52.5185 214.719 44.4074C214.74 44.4074 214.781 44.3918 214.823 44.3918C214.823 44.3918 128.95 49.4692 74.9346 80.6738C20.9188 111.879 16.6431 134.614 17.421 161.776C17.81 175.377 30.8668 188.786 43.808 198.784C44.0798 198.92 44.3501 199.06 44.6234 199.191Z" fill="url(#paint5_linear_109_45)"/>
<path d="M171.395 84.1179C171.395 84.1179 119.754 113.575 118.717 154.509C117.681 195.442 167.423 193.529 182.448 178.993C182.448 178.993 139.51 177.405 142.033 141.119C144.558 104.834 171.395 84.1179 171.395 84.1179Z" fill="url(#paint6_linear_109_45)"/>
<path opacity="0.35" d="M169.217 85.984C158.155 95.7373 109.552 142.164 134.874 184.269C150.503 192.149 173.139 188.001 182.45 178.993C182.45 178.993 139.511 177.405 142.034 141.119C144.119 111.143 162.785 91.8065 169.217 85.984Z" fill="#FF9948"/>
<path d="M0.995713 144.18C0.995713 144.18 -3.04568 63.5513 187.113 35.7707C187.113 35.7707 76.9292 43.1023 32.7066 81.0575C-8.74509 116.635 0.995713 144.18 0.995713 144.18Z" fill="url(#paint7_linear_109_45)"/>
<path opacity="0.35" d="M0.995711 144.18C0.995711 144.18 -2.09803 82.2961 125.002 48.2795C87.58 55.2928 59.2076 65.8034 37.8533 76.9992C36.0571 78.3132 34.333 79.6626 32.7066 81.0587C-8.74507 116.635 0.995711 144.18 0.995711 144.18Z" fill="#FF9948"/>
<path d="M166.429 142.274C166.24 142.274 166.07 142.217 165.919 142.104C165.805 141.953 165.748 141.782 165.748 141.593V103.272C165.748 103.083 165.805 102.932 165.919 102.818C166.07 102.667 166.24 102.592 166.429 102.592H171.644C171.833 102.592 171.984 102.667 172.098 102.818C172.249 102.932 172.324 103.083 172.324 103.272V141.593C172.324 141.782 172.249 141.953 172.098 142.104C171.984 142.217 171.833 142.274 171.644 142.274H166.429ZM203.657 103.272C203.657 103.083 203.714 102.932 203.827 102.818C203.979 102.667 204.149 102.592 204.338 102.592H209.553C209.742 102.592 209.893 102.667 210.007 102.818C210.158 102.932 210.233 103.083 210.233 103.272V141.593C210.233 141.782 210.158 141.953 210.007 142.104C209.893 142.217 209.742 142.274 209.553 142.274H204.508C204.13 142.274 203.865 142.123 203.714 141.82L187.388 115.063C187.312 114.95 187.237 114.912 187.161 114.95C187.085 114.95 187.048 115.025 187.048 115.176L187.161 141.593C187.161 141.782 187.085 141.953 186.934 142.104C186.821 142.217 186.67 142.274 186.481 142.274H181.265C181.076 142.274 180.906 142.217 180.755 142.104C180.642 141.953 180.585 141.782 180.585 141.593V103.272C180.585 103.083 180.642 102.932 180.755 102.818C180.906 102.667 181.076 102.592 181.265 102.592H186.311C186.689 102.592 186.953 102.743 187.104 103.045L203.374 129.802C203.45 129.916 203.525 129.972 203.601 129.972C203.676 129.934 203.714 129.84 203.714 129.689L203.657 103.272ZM218.689 142.274C218.5 142.274 218.33 142.217 218.179 142.104C218.065 141.953 218.009 141.782 218.009 141.593V103.272C218.009 103.083 218.065 102.932 218.179 102.818C218.33 102.667 218.5 102.592 218.689 102.592H232.521C235.204 102.592 237.566 103.064 239.607 104.009C241.648 104.954 243.216 106.314 244.312 108.09C245.446 109.829 246.013 111.87 246.013 114.213V130.653C246.013 132.996 245.446 135.055 244.312 136.832C243.216 138.57 241.648 139.912 239.607 140.857C237.566 141.801 235.204 142.274 232.521 142.274H218.689ZM224.584 136.321C224.584 136.51 224.679 136.605 224.868 136.605H232.804C234.807 136.605 236.395 135.981 237.566 134.734C238.776 133.449 239.399 131.749 239.437 129.632V115.29C239.437 113.136 238.832 111.435 237.623 110.188C236.414 108.903 234.788 108.26 232.748 108.26H224.868C224.679 108.26 224.584 108.355 224.584 108.544V136.321ZM253.732 142.274C253.543 142.274 253.373 142.217 253.222 142.104C253.108 141.953 253.052 141.782 253.052 141.593V103.272C253.052 103.083 253.108 102.932 253.222 102.818C253.373 102.667 253.543 102.592 253.732 102.592H258.947C259.136 102.592 259.287 102.667 259.401 102.818C259.552 102.932 259.627 103.083 259.627 103.272V141.593C259.627 141.782 259.552 141.953 259.401 142.104C259.287 142.217 259.136 142.274 258.947 142.274H253.732ZM292.491 142.274C292.113 142.274 291.868 142.085 291.754 141.707L289.883 135.641C289.808 135.49 289.713 135.414 289.6 135.414H274.634C274.521 135.414 274.426 135.49 274.351 135.641L272.48 141.707C272.367 142.085 272.121 142.274 271.743 142.274H266.074C265.847 142.274 265.677 142.217 265.564 142.104C265.45 141.953 265.432 141.745 265.507 141.48L277.809 103.158C277.922 102.78 278.168 102.592 278.546 102.592H285.632C286.01 102.592 286.255 102.78 286.369 103.158L298.727 141.48C298.765 141.556 298.784 141.65 298.784 141.764C298.784 142.104 298.576 142.274 298.16 142.274H292.491ZM276.108 129.916C276.07 130.142 276.146 130.256 276.335 130.256H287.843C288.069 130.256 288.145 130.142 288.069 129.916L282.23 110.925C282.193 110.774 282.136 110.698 282.06 110.698C281.985 110.698 281.928 110.774 281.89 110.925L276.108 129.916Z" fill="#7A17BF"/>
<path d="M337.595 103.272C337.595 103.083 337.651 102.932 337.765 102.818C337.916 102.667 338.086 102.592 338.275 102.592H343.49C343.679 102.592 343.83 102.667 343.944 102.818C344.095 102.932 344.171 103.083 344.171 103.272V141.593C344.171 141.782 344.095 141.953 343.944 142.104C343.83 142.217 343.679 142.274 343.49 142.274H338.275C338.086 142.274 337.916 142.217 337.765 142.104C337.651 141.953 337.595 141.782 337.595 141.593V125.38C337.595 125.191 337.5 125.097 337.311 125.097H322.856C322.667 125.097 322.572 125.191 322.572 125.38V141.593C322.572 141.782 322.497 141.953 322.345 142.104C322.232 142.217 322.081 142.274 321.892 142.274H316.676C316.487 142.274 316.317 142.217 316.166 142.104C316.053 141.953 315.996 141.782 315.996 141.593V103.272C315.996 103.083 316.053 102.932 316.166 102.818C316.317 102.667 316.487 102.592 316.676 102.592H321.892C322.081 102.592 322.232 102.667 322.345 102.818C322.497 102.932 322.572 103.083 322.572 103.272V119.145C322.572 119.334 322.667 119.428 322.856 119.428H337.311C337.5 119.428 337.595 119.334 337.595 119.145V103.272ZM363.769 142.727C360.783 142.727 358.213 141.971 356.059 140.46C353.943 138.948 352.45 136.851 351.581 134.167C350.938 132.126 350.617 129.972 350.617 127.705C350.617 125.286 350.92 123.132 351.524 121.242C352.393 118.597 353.905 116.537 356.059 115.063C358.213 113.589 360.802 112.852 363.826 112.852C366.698 112.852 369.173 113.589 371.252 115.063C373.368 116.537 374.861 118.578 375.73 121.185C376.411 123 376.751 125.154 376.751 127.648C376.751 130.029 376.43 132.183 375.787 134.111C374.918 136.794 373.425 138.91 371.309 140.46C369.192 141.971 366.679 142.727 363.769 142.727ZM363.769 137.058C365.167 137.058 366.358 136.662 367.34 135.868C368.361 135.074 369.098 133.959 369.551 132.523C369.929 131.276 370.118 129.689 370.118 127.761C370.118 125.721 369.929 124.133 369.551 123C369.136 121.563 368.417 120.467 367.397 119.712C366.377 118.918 365.13 118.521 363.656 118.521C362.257 118.521 361.048 118.918 360.028 119.712C359.007 120.467 358.27 121.563 357.817 123C357.439 124.322 357.25 125.91 357.25 127.761C357.25 129.613 357.439 131.201 357.817 132.523C358.232 133.959 358.95 135.074 359.971 135.868C361.029 136.662 362.295 137.058 363.769 137.058ZM383.648 142.274C383.459 142.274 383.289 142.217 383.138 142.104C383.024 141.953 382.967 141.782 382.967 141.593V103.272C382.967 103.083 383.024 102.932 383.138 102.818C383.289 102.667 383.459 102.592 383.648 102.592H388.863C389.052 102.592 389.203 102.667 389.317 102.818C389.468 102.932 389.543 103.083 389.543 103.272V141.593C389.543 141.782 389.468 141.953 389.317 142.104C389.203 142.217 389.052 142.274 388.863 142.274H383.648ZM400.272 109.337C399.101 109.337 398.137 108.96 397.381 108.204C396.625 107.448 396.247 106.484 396.247 105.313C396.247 104.141 396.625 103.177 397.381 102.421C398.137 101.666 399.101 101.288 400.272 101.288C401.444 101.288 402.407 101.666 403.163 102.421C403.919 103.177 404.297 104.141 404.297 105.313C404.297 106.484 403.919 107.448 403.163 108.204C402.407 108.96 401.444 109.337 400.272 109.337ZM397.551 142.274C397.362 142.274 397.192 142.217 397.041 142.104C396.928 141.953 396.871 141.782 396.871 141.593V113.929C396.871 113.74 396.928 113.589 397.041 113.476C397.192 113.325 397.362 113.249 397.551 113.249H402.767C402.955 113.249 403.107 113.325 403.22 113.476C403.371 113.589 403.447 113.74 403.447 113.929V141.593C403.447 141.782 403.371 141.953 403.22 142.104C403.107 142.217 402.955 142.274 402.767 142.274H397.551ZM428.95 103.272C428.95 103.083 429.007 102.932 429.12 102.818C429.271 102.667 429.441 102.592 429.63 102.592H434.846C435.035 102.592 435.186 102.667 435.299 102.818C435.45 102.932 435.526 103.083 435.526 103.272V141.593C435.526 141.782 435.45 141.953 435.299 142.104C435.186 142.217 435.035 142.274 434.846 142.274H429.63C429.441 142.274 429.271 142.217 429.12 142.104C429.007 141.953 428.95 141.782 428.95 141.593V139.893C428.95 139.779 428.912 139.704 428.837 139.666C428.761 139.628 428.686 139.666 428.61 139.779C426.947 141.745 424.774 142.727 422.091 142.727C419.408 142.727 417.14 142.028 415.288 140.63C413.436 139.231 412.095 137.285 411.263 134.791C410.583 132.674 410.243 130.312 410.243 127.705C410.243 125.021 410.564 122.716 411.207 120.789C412.038 118.294 413.38 116.348 415.231 114.95C417.083 113.551 419.408 112.852 422.204 112.852C424.812 112.852 426.947 113.797 428.61 115.687C428.686 115.762 428.761 115.8 428.837 115.8C428.912 115.762 428.95 115.687 428.95 115.573V103.272ZM427.59 134.337C428.459 132.788 428.893 130.596 428.893 127.761C428.893 124.814 428.421 122.565 427.476 121.015C426.456 119.353 425.02 118.521 423.168 118.521C421.24 118.521 419.729 119.315 418.633 120.902C417.499 122.565 416.932 124.87 416.932 127.818C416.932 130.464 417.386 132.637 418.293 134.337C419.351 136.151 420.957 137.058 423.111 137.058C425.039 137.058 426.531 136.151 427.59 134.337ZM453.7 112.852C456.081 112.852 458.179 113.268 459.993 114.099C461.807 114.931 463.205 116.083 464.188 117.557C465.17 118.993 465.662 120.637 465.662 122.489V141.593C465.662 141.782 465.586 141.953 465.435 142.104C465.321 142.217 465.17 142.274 464.981 142.274H459.766C459.577 142.274 459.407 142.217 459.256 142.104C459.142 141.953 459.086 141.782 459.086 141.593V139.779C459.086 139.666 459.048 139.609 458.972 139.609C458.897 139.572 458.821 139.59 458.745 139.666C456.894 141.707 454.21 142.727 450.696 142.727C447.861 142.727 445.518 142.009 443.666 140.573C441.852 139.137 440.945 137.002 440.945 134.167C440.945 131.219 441.966 128.933 444.006 127.308C446.085 125.645 448.995 124.814 452.736 124.814H458.802C458.991 124.814 459.086 124.719 459.086 124.53V123.17C459.086 121.696 458.651 120.562 457.782 119.768C456.913 118.937 455.609 118.521 453.87 118.521C452.434 118.521 451.263 118.786 450.356 119.315C449.486 119.806 448.938 120.505 448.712 121.412C448.598 121.866 448.334 122.055 447.918 121.979L442.419 121.299C442.23 121.261 442.06 121.204 441.909 121.129C441.796 121.015 441.758 120.883 441.796 120.732C442.098 118.427 443.326 116.537 445.48 115.063C447.672 113.589 450.412 112.852 453.7 112.852ZM452.34 137.512C454.191 137.512 455.779 137.021 457.102 136.038C458.424 135.055 459.086 133.808 459.086 132.296V129.632C459.086 129.443 458.991 129.349 458.802 129.349H454.04C452.037 129.349 450.45 129.727 449.278 130.482C448.145 131.238 447.578 132.315 447.578 133.714C447.578 134.923 448.012 135.868 448.882 136.548C449.789 137.191 450.941 137.512 452.34 137.512ZM471.088 153.555C470.974 153.555 470.88 153.479 470.804 153.328C470.729 153.215 470.691 153.064 470.691 152.875V148.793C470.691 148.604 470.748 148.434 470.861 148.283C471.012 148.169 471.182 148.113 471.371 148.113H471.428C472.977 148.075 474.187 147.905 475.056 147.602C475.925 147.338 476.643 146.809 477.21 146.015C477.777 145.222 478.287 144.031 478.741 142.444C478.779 142.368 478.779 142.255 478.741 142.104L469.387 114.043C469.349 113.967 469.33 113.873 469.33 113.759C469.33 113.419 469.519 113.249 469.897 113.249H475.453C475.868 113.249 476.133 113.438 476.246 113.816L481.915 133.77C481.953 133.884 482.01 133.94 482.085 133.94C482.161 133.94 482.218 133.884 482.255 133.77L487.924 113.816C488.038 113.438 488.302 113.249 488.718 113.249H494.103C494.33 113.249 494.481 113.325 494.557 113.476C494.67 113.589 494.689 113.778 494.614 114.043L484.636 143.861C483.692 146.544 482.766 148.547 481.859 149.87C480.952 151.193 479.704 152.138 478.117 152.705C476.568 153.271 474.357 153.555 471.485 153.555H471.088Z" fill="#FE8C42"/>
<path d="M255.279 165C255.193 165 255.14 164.962 255.121 164.885L252.42 155.099L252.405 155.056C252.405 154.98 252.453 154.941 252.549 154.941H253.713C253.799 154.941 253.852 154.984 253.871 155.071L255.753 162.227C255.763 162.246 255.773 162.255 255.782 162.255C255.801 162.255 255.816 162.246 255.825 162.227L257.607 155.071C257.626 154.984 257.679 154.941 257.765 154.941H258.9C258.987 154.941 259.039 154.984 259.058 155.071L260.941 162.241C260.95 162.26 260.96 162.27 260.97 162.27C260.979 162.27 260.989 162.26 260.998 162.241L262.895 155.071C262.914 154.984 262.967 154.941 263.053 154.941H264.145C264.193 154.941 264.227 154.956 264.246 154.984C264.275 155.013 264.284 155.052 264.275 155.099L261.674 164.871C261.655 164.957 261.602 165 261.516 165H260.409C260.323 165 260.27 164.957 260.251 164.871L258.369 157.456C258.359 157.427 258.35 157.413 258.34 157.413C258.33 157.413 258.321 157.427 258.311 157.456L256.486 164.871C256.477 164.957 256.424 165 256.328 165H255.279ZM266.501 156.536C266.233 156.536 266.012 156.45 265.84 156.278C265.667 156.105 265.581 155.885 265.581 155.617C265.581 155.348 265.667 155.128 265.84 154.956C266.012 154.783 266.233 154.697 266.501 154.697C266.769 154.697 266.989 154.783 267.162 154.956C267.334 155.128 267.42 155.348 267.42 155.617C267.42 155.885 267.334 156.105 267.162 156.278C266.989 156.45 266.769 156.536 266.501 156.536ZM265.926 164.986C265.83 164.986 265.782 164.938 265.782 164.842V157.83C265.782 157.734 265.83 157.686 265.926 157.686H267.018C267.114 157.686 267.162 157.734 267.162 157.83V164.842C267.162 164.938 267.114 164.986 267.018 164.986H265.926ZM272.937 158.677C272.937 158.773 272.889 158.821 272.793 158.821H271.241C271.203 158.821 271.184 158.84 271.184 158.879V162.687C271.184 163.089 271.275 163.381 271.457 163.563C271.639 163.735 271.921 163.822 272.304 163.822H272.721C272.817 163.822 272.865 163.87 272.865 163.965V164.856C272.865 164.952 272.817 165 272.721 165C272.415 165.019 272.194 165.029 272.06 165.029C271.332 165.029 270.781 164.899 270.408 164.641C270.044 164.373 269.862 163.884 269.862 163.175V158.879C269.862 158.84 269.842 158.821 269.804 158.821H268.928C268.832 158.821 268.784 158.773 268.784 158.677V157.83C268.784 157.734 268.832 157.686 268.928 157.686H269.804C269.842 157.686 269.862 157.667 269.862 157.628V155.933C269.862 155.837 269.909 155.789 270.005 155.789H271.04C271.136 155.789 271.184 155.837 271.184 155.933V157.628C271.184 157.667 271.203 157.686 271.241 157.686H272.793C272.889 157.686 272.937 157.734 272.937 157.83V158.677ZM277.896 157.585C278.682 157.585 279.304 157.815 279.764 158.275C280.224 158.725 280.454 159.338 280.454 160.114V164.856C280.454 164.952 280.406 165 280.31 165H279.218C279.122 165 279.074 164.952 279.074 164.856V160.387C279.074 159.908 278.936 159.52 278.658 159.223C278.38 158.926 278.011 158.778 277.551 158.778C277.101 158.778 276.732 158.926 276.445 159.223C276.157 159.52 276.014 159.904 276.014 160.373V164.856C276.014 164.952 275.966 165 275.87 165H274.778C274.682 165 274.634 164.952 274.634 164.856V155.085C274.634 154.989 274.682 154.941 274.778 154.941H275.87C275.966 154.941 276.014 154.989 276.014 155.085V158.347C276.014 158.366 276.019 158.38 276.028 158.39C276.047 158.4 276.062 158.395 276.071 158.376C276.483 157.849 277.091 157.585 277.896 157.585ZM285.615 165C285.519 165 285.472 164.952 285.472 164.856V155.085C285.472 154.989 285.519 154.941 285.615 154.941H289.093C290.089 154.941 290.884 155.205 291.478 155.732C292.072 156.249 292.369 156.944 292.369 157.815V162.126C292.369 162.998 292.072 163.697 291.478 164.224C290.884 164.741 290.089 165 289.093 165H285.615ZM286.851 163.75C286.851 163.788 286.87 163.807 286.909 163.807H289.15C289.706 163.807 290.146 163.64 290.472 163.304C290.807 162.96 290.98 162.5 290.989 161.925V158.016C290.989 157.442 290.822 156.987 290.487 156.651C290.161 156.306 289.715 156.134 289.15 156.134H286.909C286.87 156.134 286.851 156.153 286.851 156.191V163.75ZM297.386 157.614C297.693 157.614 297.971 157.676 298.22 157.801C298.287 157.83 298.311 157.887 298.292 157.973L298.062 159.051C298.052 159.137 297.995 159.166 297.889 159.137C297.726 159.07 297.535 159.037 297.314 159.037L297.113 159.051C296.663 159.07 296.289 159.228 295.992 159.525C295.705 159.813 295.561 160.191 295.561 160.66V164.856C295.561 164.952 295.513 165 295.418 165H294.326C294.23 165 294.182 164.952 294.182 164.856V157.83C294.182 157.734 294.23 157.686 294.326 157.686H295.418C295.513 157.686 295.561 157.734 295.561 157.83V158.591C295.561 158.62 295.566 158.639 295.576 158.649C295.595 158.649 295.609 158.639 295.619 158.62C296.05 157.949 296.639 157.614 297.386 157.614ZM300.348 156.536C300.079 156.536 299.859 156.45 299.687 156.278C299.514 156.105 299.428 155.885 299.428 155.617C299.428 155.348 299.514 155.128 299.687 154.956C299.859 154.783 300.079 154.697 300.348 154.697C300.616 154.697 300.836 154.783 301.009 154.956C301.181 155.128 301.267 155.348 301.267 155.617C301.267 155.885 301.181 156.105 301.009 156.278C300.836 156.45 300.616 156.536 300.348 156.536ZM299.773 164.986C299.677 164.986 299.629 164.938 299.629 164.842V157.83C299.629 157.734 299.677 157.686 299.773 157.686H300.865C300.961 157.686 301.009 157.734 301.009 157.83V164.842C301.009 164.938 300.961 164.986 300.865 164.986H299.773ZM305.102 165C305.016 165 304.959 164.962 304.93 164.885L302.588 157.844L302.573 157.787C302.573 157.719 302.616 157.686 302.703 157.686H303.91C303.996 157.686 304.053 157.724 304.082 157.801L305.663 163.003C305.672 163.022 305.687 163.031 305.706 163.031C305.725 163.031 305.739 163.022 305.749 163.003L307.315 157.801C307.344 157.724 307.401 157.686 307.488 157.686L308.695 157.7C308.8 157.7 308.838 157.753 308.81 157.858L306.482 164.885C306.453 164.962 306.396 165 306.309 165H305.102ZM315.833 160.43C315.871 160.823 315.885 161.264 315.876 161.752C315.876 161.848 315.828 161.896 315.732 161.896H311.148C311.11 161.896 311.091 161.915 311.091 161.954C311.091 162.279 311.12 162.528 311.177 162.701C311.282 163.084 311.493 163.386 311.809 163.606C312.135 163.817 312.542 163.922 313.031 163.922C313.74 163.922 314.286 163.63 314.669 163.046C314.717 162.95 314.779 162.936 314.856 163.003L315.675 163.549C315.742 163.606 315.756 163.668 315.718 163.735C315.45 164.167 315.066 164.507 314.568 164.756C314.08 165.005 313.524 165.129 312.901 165.129C312.202 165.129 311.613 164.976 311.134 164.67C310.655 164.363 310.296 163.927 310.056 163.362C309.826 162.797 309.711 162.112 309.711 161.307C309.711 160.608 309.764 160.076 309.869 159.712C310.042 159.051 310.387 158.529 310.904 158.146C311.421 157.763 312.049 157.571 312.786 157.571C313.754 157.571 314.477 157.815 314.956 158.304C315.435 158.783 315.727 159.492 315.833 160.43ZM312.786 158.764C312.375 158.764 312.034 158.869 311.766 159.08C311.498 159.281 311.316 159.554 311.22 159.899C311.153 160.11 311.11 160.378 311.091 160.704C311.091 160.742 311.11 160.761 311.148 160.761H314.439C314.477 160.761 314.496 160.742 314.496 160.704C314.477 160.387 314.449 160.153 314.41 159.999C314.314 159.626 314.123 159.329 313.835 159.109C313.558 158.879 313.208 158.764 312.786 158.764ZM320.821 157.614C321.127 157.614 321.405 157.676 321.654 157.801C321.721 157.83 321.745 157.887 321.726 157.973L321.496 159.051C321.487 159.137 321.429 159.166 321.324 159.137C321.161 159.07 320.969 159.037 320.749 159.037L320.548 159.051C320.098 159.07 319.724 159.228 319.427 159.525C319.14 159.813 318.996 160.191 318.996 160.66V164.856C318.996 164.952 318.948 165 318.852 165H317.76C317.664 165 317.616 164.952 317.616 164.856V157.83C317.616 157.734 317.664 157.686 317.76 157.686H318.852C318.948 157.686 318.996 157.734 318.996 157.83V158.591C318.996 158.62 319.001 158.639 319.01 158.649C319.029 158.649 319.044 158.639 319.053 158.62C319.485 157.949 320.074 157.614 320.821 157.614Z" fill="#F9532C"/>
<defs>
<linearGradient id="paint0_linear_109_45" x1="183.896" y1="36.5595" x2="140.285" y2="178.214" gradientUnits="userSpaceOnUse">
<stop stop-color="#9F1EFB"/>
<stop offset="1" stop-color="#7A17BF"/>
</linearGradient>
<linearGradient id="paint1_linear_109_45" x1="241.963" y1="22.4415" x2="243.952" y2="40.7888" gradientUnits="userSpaceOnUse">
<stop stop-color="#9F1EFB"/>
<stop offset="0.9997" stop-color="#541085"/>
</linearGradient>
<linearGradient id="paint2_linear_109_45" x1="117.933" y1="181.272" x2="158.335" y2="60.2221" gradientUnits="userSpaceOnUse">
<stop stop-color="#E974FC"/>
<stop offset="0.9997" stop-color="#E974FC" stop-opacity="0"/>
</linearGradient>
<linearGradient id="paint3_linear_109_45" x1="257.325" y1="54.0752" x2="292.86" y2="36.2261" gradientUnits="userSpaceOnUse">
<stop stop-color="#E974FC"/>
<stop offset="0.9997" stop-color="#E974FC" stop-opacity="0"/>
</linearGradient>
<linearGradient id="paint4_linear_109_45" x1="244.875" y1="72.241" x2="244.875" y2="51.7962" gradientUnits="userSpaceOnUse">
<stop stop-color="#9F1EFB"/>
<stop offset="0.9997" stop-color="#541085"/>
</linearGradient>
<linearGradient id="paint5_linear_109_45" x1="17.6984" y1="167.792" x2="133.91" y2="24.6555" gradientUnits="userSpaceOnUse">
<stop stop-color="#E974FC"/>
<stop offset="0.9997" stop-color="#E974FC" stop-opacity="0"/>
</linearGradient>
<linearGradient id="paint6_linear_109_45" x1="151.975" y1="105.606" x2="151.222" y2="166.312" gradientUnits="userSpaceOnUse">
<stop stop-color="#F9532C"/>
<stop offset="0.9997" stop-color="#FF9948"/>
</linearGradient>
<linearGradient id="paint7_linear_109_45" x1="116.339" y1="53.671" x2="51.9187" y2="136.224" gradientUnits="userSpaceOnUse">
<stop stop-color="#F9532C"/>
<stop offset="0.9997" stop-color="#FF9948"/>
</linearGradient>
</defs>
</svg>
